<svg xmlns="http://www.w3.org/2000/svg" viewBox="0 0 1317.50 495.00">
  <style>
    .key-bg { fill: #f5f5f5; stroke: #d4d4d4; stroke-width: 1; }
    .key-index { fill: #171717; font-family: ui-monospace, SFMono-Regular, "SF Mono", Menlo, Consolas, "Liberation Mono", monospace; font-weight: 700; text-anchor: middle; dominant-baseline: central; }
    .key-part { font-family: system-ui, -apple-system, BlinkMacSystemFont, "Segoe UI", Roboto, sans-serif; text-anchor: middle; dominant-baseline: central; }
    @media (prefers-color-scheme: dark) {
      .key-bg { fill: #2a2a2a; stroke: #404040; }
      .key-index { fill: #e5e5e5; }
    }
  </style>
  <g>
    <path class="key-bg" d="M 26.00,22.00 L 84.00,22.00 Q 88.00,22.00 88.00,26.00 L 88.00,84.00 Q 88.00,88.00 84.00,88.00 L 26.00,88.00 Q 22.00,88.00 22.00,84.00 L 22.00,26.00 Q 22.00,22.00 26.00,22.00 Z" />
    <path class="key-bg" d="M 166.00,22.00 L 224.00,22.00 Q 228.00,22.00 228.00,26.00 L 228.00,84.00 Q 228.00,88.00 224.00,88.00 L 166.00,88.00 Q 162.00,88.00 162.00,84.00 L 162.00,26.00 Q 162.00,22.00 166.00,22.00 Z" />
    <path class="key-bg" d="M 236.00,22.00 L 294.00,22.00 Q 298.00,22.00 298.00,26.00 L 298.00,84.00 Q 298.00,88.00 294.00,88.00 L 236.00,88.00 Q 232.00,88.00 232.00,84.00 L 232.00,26.00 Q 232.00,22.00 236.00,22.00 Z" />
    <path class="key-bg" d="M 306.00,22.00 L 364.00,22.00 Q 368.00,22.00 368.00,26.00 L 368.00,84.00 Q 368.00,88.00 364.00,88.00 L 306.00,88.00 Q 302.00,88.00 302.00,84.00 L 302.00,26.00 Q 302.00,22.00 306.00,22.00 Z" />
    <path class="key-bg" d="M 376.00,22.00 L 434.00,22.00 Q 438.00,22.00 438.00,26.00 L 438.00,84.00 Q 438.00,88.00 434.00,88.00 L 376.00,88.00 Q 372.00,88.00 372.00,84.00 L 372.00,26.00 Q 372.00,22.00 376.00,22.00 Z" />
    <path class="key-bg" d="M 481.00,22.00 L 539.00,22.00 Q 543.00,22.00 543.00,26.00 L 543.00,84.00 Q 543.00,88.00 539.00,88.00 L 481.00,88.00 Q 477.00,88.00 477.00,84.00 L 477.00,26.00 Q 477.00,22.00 481.00,22.00 Z" />
    <path class="key-bg" d="M 551.00,22.00 L 609.00,22.00 Q 613.00,22.00 613.00,26.00 L 613.00,84.00 Q 613.00,88.00 609.00,88.00 L 551.00,88.00 Q 547.00,88.00 547.00,84.00 L 547.00,26.00 Q 547.00,22.00 551.00,22.00 Z" />
    <path class="key-bg" d="M 621.00,22.00 L 679.00,22.00 Q 683.00,22.00 683.00,26.00 L 683.00,84.00 Q 683.00,88.00 679.00,88.00 L 621.00,88.00 Q 617.00,88.00 617.00,84.00 L 617.00,26.00 Q 617.00,22.00 621.00,22.00 Z" />
    <path class="key-bg" d="M 691.00,22.00 L 749.00,22.00 Q 753.00,22.00 753.00,26.00 L 753.00,84.00 Q 753.00,88.00 749.00,88.00 L 691.00,88.00 Q 687.00,88.00 687.00,84.00 L 687.00,26.00 Q 687.00,22.00 691.00,22.00 Z" />
    <path class="key-bg" d="M 796.00,22.00 L 854.00,22.00 Q 858.00,22.00 858.00,26.00 L 858.00,84.00 Q 858.00,88.00 854.00,88.00 L 796.00,88.00 Q 792.00,88.00 792.00,84.00 L 792.00,26.00 Q 792.00,22.00 796.00,22.00 Z" />
    <path class="key-bg" d="M 866.00,22.00 L 924.00,22.00 Q 928.00,22.00 928.00,26.00 L 928.00,84.00 Q 928.00,88.00 924.00,88.00 L 866.00,88.00 Q 862.00,88.00 862.00,84.00 L 862.00,26.00 Q 862.00,22.00 866.00,22.00 Z" />
    <path class="key-bg" d="M 936.00,22.00 L 994.00,22.00 Q 998.00,22.00 998.00,26.00 L 998.00,84.00 Q 998.00,88.00 994.00,88.00 L 936.00,88.00 Q 932.00,88.00 932.00,84.00 L 932.00,26.00 Q 932.00,22.00 936.00,22.00 Z" />
    <path class="key-bg" d="M 1006.00,22.00 L 1064.00,22.00 Q 1068.00,22.00 1068.00,26.00 L 1068.00,84.00 Q 1068.00,88.00 1064.00,88.00 L 1006.00,88.00 Q 1002.00,88.00 1002.00,84.00 L 1002.00,26.00 Q 1002.00,22.00 1006.00,22.00 Z" />
    <path class="key-bg" d="M 1093.50,22.00 L 1151.50,22.00 Q 1155.50,22.00 1155.50,26.00 L 1155.50,84.00 Q 1155.50,88.00 1151.50,88.00 L 1093.50,88.00 Q 1089.50,88.00 1089.50,84.00 L 1089.50,26.00 Q 1089.50,22.00 1093.50,22.00 Z" />
    <path class="key-bg" d="M 1163.50,22.00 L 1221.50,22.00 Q 1225.50,22.00 1225.50,26.00 L 1225.50,84.00 Q 1225.50,88.00 1221.50,88.00 L 1163.50,88.00 Q 1159.50,88.00 1159.50,84.00 L 1159.50,26.00 Q 1159.50,22.00 1163.50,22.00 Z" />
    <path class="key-bg" d="M 1233.50,22.00 L 1291.50,22.00 Q 1295.50,22.00 1295.50,26.00 L 1295.50,84.00 Q 1295.50,88.00 1291.50,88.00 L 1233.50,88.00 Q 1229.50,88.00 1229.50,84.00 L 1229.50,26.00 Q 1229.50,22.00 1233.50,22.00 Z" />
    <path class="key-bg" d="M 26.00,127.00 L 84.00,127.00 Q 88.00,127.00 88.00,131.00 L 88.00,189.00 Q 88.00,193.00 84.00,193.00 L 26.00,193.00 Q 22.00,193.00 22.00,189.00 L 22.00,131.00 Q 22.00,127.00 26.00,127.00 Z" />
    <path class="key-bg" d="M 96.00,127.00 L 154.00,127.00 Q 158.00,127.00 158.00,131.00 L 158.00,189.00 Q 158.00,193.00 154.00,193.00 L 96.00,193.00 Q 92.00,193.00 92.00,189.00 L 92.00,131.00 Q 92.00,127.00 96.00,127.00 Z" />
    <path class="key-bg" d="M 166.00,127.00 L 224.00,127.00 Q 228.00,127.00 228.00,131.00 L 228.00,189.00 Q 228.00,193.00 224.00,193.00 L 166.00,193.00 Q 162.00,193.00 162.00,189.00 L 162.00,131.00 Q 162.00,127.00 166.00,127.00 Z" />
    <path class="key-bg" d="M 236.00,127.00 L 294.00,127.00 Q 298.00,127.00 298.00,131.00 L 298.00,189.00 Q 298.00,193.00 294.00,193.00 L 236.00,193.00 Q 232.00,193.00 232.00,189.00 L 232.00,131.00 Q 232.00,127.00 236.00,127.00 Z" />
    <path class="key-bg" d="M 306.00,127.00 L 364.00,127.00 Q 368.00,127.00 368.00,131.00 L 368.00,189.00 Q 368.00,193.00 364.00,193.00 L 306.00,193.00 Q 302.00,193.00 302.00,189.00 L 302.00,131.00 Q 302.00,127.00 306.00,127.00 Z" />
    <path class="key-bg" d="M 376.00,127.00 L 434.00,127.00 Q 438.00,127.00 438.00,131.00 L 438.00,189.00 Q 438.00,193.00 434.00,193.00 L 376.00,193.00 Q 372.00,193.00 372.00,189.00 L 372.00,131.00 Q 372.00,127.00 376.00,127.00 Z" />
    <path class="key-bg" d="M 446.00,127.00 L 504.00,127.00 Q 508.00,127.00 508.00,131.00 L 508.00,189.00 Q 508.00,193.00 504.00,193.00 L 446.00,193.00 Q 442.00,193.00 442.00,189.00 L 442.00,131.00 Q 442.00,127.00 446.00,127.00 Z" />
    <path class="key-bg" d="M 516.00,127.00 L 574.00,127.00 Q 578.00,127.00 578.00,131.00 L 578.00,189.00 Q 578.00,193.00 574.00,193.00 L 516.00,193.00 Q 512.00,193.00 512.00,189.00 L 512.00,131.00 Q 512.00,127.00 516.00,127.00 Z" />
    <path class="key-bg" d="M 586.00,127.00 L 644.00,127.00 Q 648.00,127.00 648.00,131.00 L 648.00,189.00 Q 648.00,193.00 644.00,193.00 L 586.00,193.00 Q 582.00,193.00 582.00,189.00 L 582.00,131.00 Q 582.00,127.00 586.00,127.00 Z" />
    <path class="key-bg" d="M 656.00,127.00 L 714.00,127.00 Q 718.00,127.00 718.00,131.00 L 718.00,189.00 Q 718.00,193.00 714.00,193.00 L 656.00,193.00 Q 652.00,193.00 652.00,189.00 L 652.00,131.00 Q 652.00,127.00 656.00,127.00 Z" />
    <path class="key-bg" d="M 726.00,127.00 L 784.00,127.00 Q 788.00,127.00 788.00,131.00 L 788.00,189.00 Q 788.00,193.00 784.00,193.00 L 726.00,193.00 Q 722.00,193.00 722.00,189.00 L 722.00,131.00 Q 722.00,127.00 726.00,127.00 Z" />
    <path class="key-bg" d="M 796.00,127.00 L 854.00,127.00 Q 858.00,127.00 858.00,131.00 L 858.00,189.00 Q 858.00,193.00 854.00,193.00 L 796.00,193.00 Q 792.00,193.00 792.00,189.00 L 792.00,131.00 Q 792.00,127.00 796.00,127.00 Z" />
    <path class="key-bg" d="M 866.00,127.00 L 924.00,127.00 Q 928.00,127.00 928.00,131.00 L 928.00,189.00 Q 928.00,193.00 924.00,193.00 L 866.00,193.00 Q 862.00,193.00 862.00,189.00 L 862.00,131.00 Q 862.00,127.00 866.00,127.00 Z" />
    <path class="key-bg" d="M 936.00,127.00 L 1064.00,127.00 Q 1068.00,127.00 1068.00,131.00 L 1068.00,189.00 Q 1068.00,193.00 1064.00,193.00 L 936.00,193.00 Q 932.00,193.00 932.00,189.00 L 932.00,131.00 Q 932.00,127.00 936.00,127.00 Z" />
    <path class="key-bg" d="M 1093.50,127.00 L 1151.50,127.00 Q 1155.50,127.00 1155.50,131.00 L 1155.50,189.00 Q 1155.50,193.00 1151.50,193.00 L 1093.50,193.00 Q 1089.50,193.00 1089.50,189.00 L 1089.50,131.00 Q 1089.50,127.00 1093.50,127.00 Z" />
    <path class="key-bg" d="M 1163.50,127.00 L 1221.50,127.00 Q 1225.50,127.00 1225.50,131.00 L 1225.50,189.00 Q 1225.50,193.00 1221.50,193.00 L 1163.50,193.00 Q 1159.50,193.00 1159.50,189.00 L 1159.50,131.00 Q 1159.50,127.00 1163.50,127.00 Z" />
    <path class="key-bg" d="M 1233.50,127.00 L 1291.50,127.00 Q 1295.50,127.00 1295.50,131.00 L 1295.50,189.00 Q 1295.50,193.00 1291.50,193.00 L 1233.50,193.00 Q 1229.50,193.00 1229.50,189.00 L 1229.50,131.00 Q 1229.50,127.00 1233.50,127.00 Z" />
    <path class="key-bg" d="M 26.00,197.00 L 119.00,197.00 Q 123.00,197.00 123.00,201.00 L 123.00,259.00 Q 123.00,263.00 119.00,263.00 L 26.00,263.00 Q 22.00,263.00 22.00,259.00 L 22.00,201.00 Q 22.00,197.00 26.00,197.00 Z" />
    <path class="key-bg" d="M 131.00,197.00 L 189.00,197.00 Q 193.00,197.00 193.00,201.00 L 193.00,259.00 Q 193.00,263.00 189.00,263.00 L 131.00,263.00 Q 127.00,263.00 127.00,259.00 L 127.00,201.00 Q 127.00,197.00 131.00,197.00 Z" />
    <path class="key-bg" d="M 201.00,197.00 L 259.00,197.00 Q 263.00,197.00 263.00,201.00 L 263.00,259.00 Q 263.00,263.00 259.00,263.00 L 201.00,263.00 Q 197.00,263.00 197.00,259.00 L 197.00,201.00 Q 197.00,197.00 201.00,197.00 Z" />
    <path class="key-bg" d="M 271.00,197.00 L 329.00,197.00 Q 333.00,197.00 333.00,201.00 L 333.00,259.00 Q 333.00,263.00 329.00,263.00 L 271.00,263.00 Q 267.00,263.00 267.00,259.00 L 267.00,201.00 Q 267.00,197.00 271.00,197.00 Z" />
    <path class="key-bg" d="M 341.00,197.00 L 399.00,197.00 Q 403.00,197.00 403.00,201.00 L 403.00,259.00 Q 403.00,263.00 399.00,263.00 L 341.00,263.00 Q 337.00,263.00 337.00,259.00 L 337.00,201.00 Q 337.00,197.00 341.00,197.00 Z" />
    <path class="key-bg" d="M 411.00,197.00 L 469.00,197.00 Q 473.00,197.00 473.00,201.00 L 473.00,259.00 Q 473.00,263.00 469.00,263.00 L 411.00,263.00 Q 407.00,263.00 407.00,259.00 L 407.00,201.00 Q 407.00,197.00 411.00,197.00 Z" />
    <path class="key-bg" d="M 481.00,197.00 L 539.00,197.00 Q 543.00,197.00 543.00,201.00 L 543.00,259.00 Q 543.00,263.00 539.00,263.00 L 481.00,263.00 Q 477.00,263.00 477.00,259.00 L 477.00,201.00 Q 477.00,197.00 481.00,197.00 Z" />
    <path class="key-bg" d="M 551.00,197.00 L 609.00,197.00 Q 613.00,197.00 613.00,201.00 L 613.00,259.00 Q 613.00,263.00 609.00,263.00 L 551.00,263.00 Q 547.00,263.00 547.00,259.00 L 547.00,201.00 Q 547.00,197.00 551.00,197.00 Z" />
    <path class="key-bg" d="M 621.00,197.00 L 679.00,197.00 Q 683.00,197.00 683.00,201.00 L 683.00,259.00 Q 683.00,263.00 679.00,263.00 L 621.00,263.00 Q 617.00,263.00 617.00,259.00 L 617.00,201.00 Q 617.00,197.00 621.00,197.00 Z" />
    <path class="key-bg" d="M 691.00,197.00 L 749.00,197.00 Q 753.00,197.00 753.00,201.00 L 753.00,259.00 Q 753.00,263.00 749.00,263.00 L 691.00,263.00 Q 687.00,263.00 687.00,259.00 L 687.00,201.00 Q 687.00,197.00 691.00,197.00 Z" />
    <path class="key-bg" d="M 761.00,197.00 L 819.00,197.00 Q 823.00,197.00 823.00,201.00 L 823.00,259.00 Q 823.00,263.00 819.00,263.00 L 761.00,263.00 Q 757.00,263.00 757.00,259.00 L 757.00,201.00 Q 757.00,197.00 761.00,197.00 Z" />
    <path class="key-bg" d="M 831.00,197.00 L 889.00,197.00 Q 893.00,197.00 893.00,201.00 L 893.00,259.00 Q 893.00,263.00 889.00,263.00 L 831.00,263.00 Q 827.00,263.00 827.00,259.00 L 827.00,201.00 Q 827.00,197.00 831.00,197.00 Z" />
    <path class="key-bg" d="M 901.00,197.00 L 959.00,197.00 Q 963.00,197.00 963.00,201.00 L 963.00,259.00 Q 963.00,263.00 959.00,263.00 L 901.00,263.00 Q 897.00,263.00 897.00,259.00 L 897.00,201.00 Q 897.00,197.00 901.00,197.00 Z" />
    <path class="key-bg" d="M 971.00,197.00 L 1064.00,197.00 Q 1068.00,197.00 1068.00,201.00 L 1068.00,259.00 Q 1068.00,263.00 1064.00,263.00 L 971.00,263.00 Q 967.00,263.00 967.00,259.00 L 967.00,201.00 Q 967.00,197.00 971.00,197.00 Z" />
    <path class="key-bg" d="M 1093.50,197.00 L 1151.50,197.00 Q 1155.50,197.00 1155.50,201.00 L 1155.50,259.00 Q 1155.50,263.00 1151.50,263.00 L 1093.50,263.00 Q 1089.50,263.00 1089.50,259.00 L 1089.50,201.00 Q 1089.50,197.00 1093.50,197.00 Z" />
    <path class="key-bg" d="M 1163.50,197.00 L 1221.50,197.00 Q 1225.50,197.00 1225.50,201.00 L 1225.50,259.00 Q 1225.50,263.00 1221.50,263.00 L 1163.50,263.00 Q 1159.50,263.00 1159.50,259.00 L 1159.50,201.00 Q 1159.50,197.00 1163.50,197.00 Z" />
    <path class="key-bg" d="M 1233.50,197.00 L 1291.50,197.00 Q 1295.50,197.00 1295.50,201.00 L 1295.50,259.00 Q 1295.50,263.00 1291.50,263.00 L 1233.50,263.00 Q 1229.50,263.00 1229.50,259.00 L 1229.50,201.00 Q 1229.50,197.00 1233.50,197.00 Z" />
    <path class="key-bg" d="M 26.00,267.00 L 136.50,267.00 Q 140.50,267.00 140.50,271.00 L 140.50,329.00 Q 140.50,333.00 136.50,333.00 L 26.00,333.00 Q 22.00,333.00 22.00,329.00 L 22.00,271.00 Q 22.00,267.00 26.00,267.00 Z" />
    <path class="key-bg" d="M 148.50,267.00 L 206.50,267.00 Q 210.50,267.00 210.50,271.00 L 210.50,329.00 Q 210.50,333.00 206.50,333.00 L 148.50,333.00 Q 144.50,333.00 144.50,329.00 L 144.50,271.00 Q 144.50,267.00 148.50,267.00 Z" />
    <path class="key-bg" d="M 218.50,267.00 L 276.50,267.00 Q 280.50,267.00 280.50,271.00 L 280.50,329.00 Q 280.50,333.00 276.50,333.00 L 218.50,333.00 Q 214.50,333.00 214.50,329.00 L 214.50,271.00 Q 214.50,267.00 218.50,267.00 Z" />
    <path class="key-bg" d="M 288.50,267.00 L 346.50,267.00 Q 350.50,267.00 350.50,271.00 L 350.50,329.00 Q 350.50,333.00 346.50,333.00 L 288.50,333.00 Q 284.50,333.00 284.50,329.00 L 284.50,271.00 Q 284.50,267.00 288.50,267.00 Z" />
    <path class="key-bg" d="M 358.50,267.00 L 416.50,267.00 Q 420.50,267.00 420.50,271.00 L 420.50,329.00 Q 420.50,333.00 416.50,333.00 L 358.50,333.00 Q 354.50,333.00 354.50,329.00 L 354.50,271.00 Q 354.50,267.00 358.50,267.00 Z" />
    <path class="key-bg" d="M 428.50,267.00 L 486.50,267.00 Q 490.50,267.00 490.50,271.00 L 490.50,329.00 Q 490.50,333.00 486.50,333.00 L 428.50,333.00 Q 424.50,333.00 424.50,329.00 L 424.50,271.00 Q 424.50,267.00 428.50,267.00 Z" />
    <path class="key-bg" d="M 498.50,267.00 L 556.50,267.00 Q 560.50,267.00 560.50,271.00 L 560.50,329.00 Q 560.50,333.00 556.50,333.00 L 498.50,333.00 Q 494.50,333.00 494.50,329.00 L 494.50,271.00 Q 494.50,267.00 498.50,267.00 Z" />
    <path class="key-bg" d="M 568.50,267.00 L 626.50,267.00 Q 630.50,267.00 630.50,271.00 L 630.50,329.00 Q 630.50,333.00 626.50,333.00 L 568.50,333.00 Q 564.50,333.00 564.50,329.00 L 564.50,271.00 Q 564.50,267.00 568.50,267.00 Z" />
    <path class="key-bg" d="M 638.50,267.00 L 696.50,267.00 Q 700.50,267.00 700.50,271.00 L 700.50,329.00 Q 700.50,333.00 696.50,333.00 L 638.50,333.00 Q 634.50,333.00 634.50,329.00 L 634.50,271.00 Q 634.50,267.00 638.50,267.00 Z" />
    <path class="key-bg" d="M 708.50,267.00 L 766.50,267.00 Q 770.50,267.00 770.50,271.00 L 770.50,329.00 Q 770.50,333.00 766.50,333.00 L 708.50,333.00 Q 704.50,333.00 704.50,329.00 L 704.50,271.00 Q 704.50,267.00 708.50,267.00 Z" />
    <path class="key-bg" d="M 778.50,267.00 L 836.50,267.00 Q 840.50,267.00 840.50,271.00 L 840.50,329.00 Q 840.50,333.00 836.50,333.00 L 778.50,333.00 Q 774.50,333.00 774.50,329.00 L 774.50,271.00 Q 774.50,267.00 778.50,267.00 Z" />
    <path class="key-bg" d="M 848.50,267.00 L 906.50,267.00 Q 910.50,267.00 910.50,271.00 L 910.50,329.00 Q 910.50,333.00 906.50,333.00 L 848.50,333.00 Q 844.50,333.00 844.50,329.00 L 844.50,271.00 Q 844.50,267.00 848.50,267.00 Z" />
    <path class="key-bg" d="M 918.50,267.00 L 1064.00,267.00 Q 1068.00,267.00 1068.00,271.00 L 1068.00,329.00 Q 1068.00,333.00 1064.00,333.00 L 918.50,333.00 Q 914.50,333.00 914.50,329.00 L 914.50,271.00 Q 914.50,267.00 918.50,267.00 Z" />
    <path class="key-bg" d="M 26.00,337.00 L 171.50,337.00 Q 175.50,337.00 175.50,341.00 L 175.50,399.00 Q 175.50,403.00 171.50,403.00 L 26.00,403.00 Q 22.00,403.00 22.00,399.00 L 22.00,341.00 Q 22.00,337.00 26.00,337.00 Z" />
    <path class="key-bg" d="M 183.50,337.00 L 241.50,337.00 Q 245.50,337.00 245.50,341.00 L 245.50,399.00 Q 245.50,403.00 241.50,403.00 L 183.50,403.00 Q 179.50,403.00 179.50,399.00 L 179.50,341.00 Q 179.50,337.00 183.50,337.00 Z" />
    <path class="key-bg" d="M 253.50,337.00 L 311.50,337.00 Q 315.50,337.00 315.50,341.00 L 315.50,399.00 Q 315.50,403.00 311.50,403.00 L 253.50,403.00 Q 249.50,403.00 249.50,399.00 L 249.50,341.00 Q 249.50,337.00 253.50,337.00 Z" />
    <path class="key-bg" d="M 323.50,337.00 L 381.50,337.00 Q 385.50,337.00 385.50,341.00 L 385.50,399.00 Q 385.50,403.00 381.50,403.00 L 323.50,403.00 Q 319.50,403.00 319.50,399.00 L 319.50,341.00 Q 319.50,337.00 323.50,337.00 Z" />
    <path class="key-bg" d="M 393.50,337.00 L 451.50,337.00 Q 455.50,337.00 455.50,341.00 L 455.50,399.00 Q 455.50,403.00 451.50,403.00 L 393.50,403.00 Q 389.50,403.00 389.50,399.00 L 389.50,341.00 Q 389.50,337.00 393.50,337.00 Z" />
    <path class="key-bg" d="M 463.50,337.00 L 521.50,337.00 Q 525.50,337.00 525.50,341.00 L 525.50,399.00 Q 525.50,403.00 521.50,403.00 L 463.50,403.00 Q 459.50,403.00 459.50,399.00 L 459.50,341.00 Q 459.50,337.00 463.50,337.00 Z" />
    <path class="key-bg" d="M 533.50,337.00 L 591.50,337.00 Q 595.50,337.00 595.50,341.00 L 595.50,399.00 Q 595.50,403.00 591.50,403.00 L 533.50,403.00 Q 529.50,403.00 529.50,399.00 L 529.50,341.00 Q 529.50,337.00 533.50,337.00 Z" />
    <path class="key-bg" d="M 603.50,337.00 L 661.50,337.00 Q 665.50,337.00 665.50,341.00 L 665.50,399.00 Q 665.50,403.00 661.50,403.00 L 603.50,403.00 Q 599.50,403.00 599.50,399.00 L 599.50,341.00 Q 599.50,337.00 603.50,337.00 Z" />
    <path class="key-bg" d="M 673.50,337.00 L 731.50,337.00 Q 735.50,337.00 735.50,341.00 L 735.50,399.00 Q 735.50,403.00 731.50,403.00 L 673.50,403.00 Q 669.50,403.00 669.50,399.00 L 669.50,341.00 Q 669.50,337.00 673.50,337.00 Z" />
    <path class="key-bg" d="M 743.50,337.00 L 801.50,337.00 Q 805.50,337.00 805.50,341.00 L 805.50,399.00 Q 805.50,403.00 801.50,403.00 L 743.50,403.00 Q 739.50,403.00 739.50,399.00 L 739.50,341.00 Q 739.50,337.00 743.50,337.00 Z" />
    <path class="key-bg" d="M 813.50,337.00 L 871.50,337.00 Q 875.50,337.00 875.50,341.00 L 875.50,399.00 Q 875.50,403.00 871.50,403.00 L 813.50,403.00 Q 809.50,403.00 809.50,399.00 L 809.50,341.00 Q 809.50,337.00 813.50,337.00 Z" />
    <path class="key-bg" d="M 883.50,337.00 L 1064.00,337.00 Q 1068.00,337.00 1068.00,341.00 L 1068.00,399.00 Q 1068.00,403.00 1064.00,403.00 L 883.50,403.00 Q 879.50,403.00 879.50,399.00 L 879.50,341.00 Q 879.50,337.00 883.50,337.00 Z" />
    <path class="key-bg" d="M 1163.50,337.00 L 1221.50,337.00 Q 1225.50,337.00 1225.50,341.00 L 1225.50,399.00 Q 1225.50,403.00 1221.50,403.00 L 1163.50,403.00 Q 1159.50,403.00 1159.50,399.00 L 1159.50,341.00 Q 1159.50,337.00 1163.50,337.00 Z" />
    <path class="key-bg" d="M 26.00,407.00 L 101.50,407.00 Q 105.50,407.00 105.50,411.00 L 105.50,469.00 Q 105.50,473.00 101.50,473.00 L 26.00,473.00 Q 22.00,473.00 22.00,469.00 L 22.00,411.00 Q 22.00,407.00 26.00,407.00 Z" />
    <path class="key-bg" d="M 113.50,407.00 L 189.00,407.00 Q 193.00,407.00 193.00,411.00 L 193.00,469.00 Q 193.00,473.00 189.00,473.00 L 113.50,473.00 Q 109.50,473.00 109.50,469.00 L 109.50,411.00 Q 109.50,407.00 113.50,407.00 Z" />
    <path class="key-bg" d="M 201.00,407.00 L 276.50,407.00 Q 280.50,407.00 280.50,411.00 L 280.50,469.00 Q 280.50,473.00 276.50,473.00 L 201.00,473.00 Q 197.00,473.00 197.00,469.00 L 197.00,411.00 Q 197.00,407.00 201.00,407.00 Z" />
    <path class="key-bg" d="M 288.50,407.00 L 714.00,407.00 Q 718.00,407.00 718.00,411.00 L 718.00,469.00 Q 718.00,473.00 714.00,473.00 L 288.50,473.00 Q 284.50,473.00 284.50,469.00 L 284.50,411.00 Q 284.50,407.00 288.50,407.00 Z" />
    <path class="key-bg" d="M 726.00,407.00 L 801.50,407.00 Q 805.50,407.00 805.50,411.00 L 805.50,469.00 Q 805.50,473.00 801.50,473.00 L 726.00,473.00 Q 722.00,473.00 722.00,469.00 L 722.00,411.00 Q 722.00,407.00 726.00,407.00 Z" />
    <path class="key-bg" d="M 813.50,407.00 L 889.00,407.00 Q 893.00,407.00 893.00,411.00 L 893.00,469.00 Q 893.00,473.00 889.00,473.00 L 813.50,473.00 Q 809.50,473.00 809.50,469.00 L 809.50,411.00 Q 809.50,407.00 813.50,407.00 Z" />
    <path class="key-bg" d="M 901.00,407.00 L 976.50,407.00 Q 980.50,407.00 980.50,411.00 L 980.50,469.00 Q 980.50,473.00 976.50,473.00 L 901.00,473.00 Q 897.00,473.00 897.00,469.00 L 897.00,411.00 Q 897.00,407.00 901.00,407.00 Z" />
    <path class="key-bg" d="M 988.50,407.00 L 1064.00,407.00 Q 1068.00,407.00 1068.00,411.00 L 1068.00,469.00 Q 1068.00,473.00 1064.00,473.00 L 988.50,473.00 Q 984.50,473.00 984.50,469.00 L 984.50,411.00 Q 984.50,407.00 988.50,407.00 Z" />
    <path class="key-bg" d="M 1093.50,407.00 L 1151.50,407.00 Q 1155.50,407.00 1155.50,411.00 L 1155.50,469.00 Q 1155.50,473.00 1151.50,473.00 L 1093.50,473.00 Q 1089.50,473.00 1089.50,469.00 L 1089.50,411.00 Q 1089.50,407.00 1093.50,407.00 Z" />
    <path class="key-bg" d="M 1163.50,407.00 L 1221.50,407.00 Q 1225.50,407.00 1225.50,411.00 L 1225.50,469.00 Q 1225.50,473.00 1221.50,473.00 L 1163.50,473.00 Q 1159.50,473.00 1159.50,469.00 L 1159.50,411.00 Q 1159.50,407.00 1163.50,407.00 Z" />
    <path class="key-bg" d="M 1233.50,407.00 L 1291.50,407.00 Q 1295.50,407.00 1295.50,411.00 L 1295.50,469.00 Q 1295.50,473.00 1291.50,473.00 L 1233.50,473.00 Q 1229.50,473.00 1229.50,469.00 L 1229.50,411.00 Q 1229.50,407.00 1233.50,407.00 Z" />
  </g>
  <g>
    <text class="key-index" x="55.00" y="55.00" font-size="36">0</text>
    <text class="key-index" x="195.00" y="55.00" font-size="36">1</text>
    <text class="key-index" x="265.00" y="55.00" font-size="36">2</text>
    <text class="key-index" x="335.00" y="55.00" font-size="36">3</text>
    <text class="key-index" x="405.00" y="55.00" font-size="36">4</text>
    <text class="key-index" x="510.00" y="55.00" font-size="36">5</text>
    <text class="key-index" x="580.00" y="55.00" font-size="36">6</text>
    <text class="key-index" x="650.00" y="55.00" font-size="36">7</text>
    <text class="key-index" x="720.00" y="55.00" font-size="36">8</text>
    <text class="key-index" x="825.00" y="55.00" font-size="36">9</text>
    <text class="key-index" x="895.00" y="55.00" font-size="36">10</text>
    <text class="key-index" x="965.00" y="55.00" font-size="36">11</text>
    <text class="key-index" x="1035.00" y="55.00" font-size="36">12</text>
    <text class="key-index" x="1122.50" y="55.00" font-size="36">13</text>
    <text class="key-index" x="1192.50" y="55.00" font-size="36">14</text>
    <text class="key-index" x="1262.50" y="55.00" font-size="36">15</text>
    <text class="key-index" x="55.00" y="160.00" font-size="36">16</text>
    <text class="key-index" x="125.00" y="160.00" font-size="36">17</text>
    <text class="key-index" x="195.00" y="160.00" font-size="36">18</text>
    <text class="key-index" x="265.00" y="160.00" font-size="36">19</text>
    <text class="key-index" x="335.00" y="160.00" font-size="36">20</text>
    <text class="key-index" x="405.00" y="160.00" font-size="36">21</text>
    <text class="key-index" x="475.00" y="160.00" font-size="36">22</text>
    <text class="key-index" x="545.00" y="160.00" font-size="36">23</text>
    <text class="key-index" x="615.00" y="160.00" font-size="36">24</text>
    <text class="key-index" x="685.00" y="160.00" font-size="36">25</text>
    <text class="key-index" x="755.00" y="160.00" font-size="36">26</text>
    <text class="key-index" x="825.00" y="160.00" font-size="36">27</text>
    <text class="key-index" x="895.00" y="160.00" font-size="36">28</text>
    <text class="key-index" x="1000.00" y="160.00" font-size="36">29</text>
    <text class="key-index" x="1122.50" y="160.00" font-size="36">30</text>
    <text class="key-index" x="1192.50" y="160.00" font-size="36">31</text>
    <text class="key-index" x="1262.50" y="160.00" font-size="36">32</text>
    <text class="key-index" x="72.50" y="230.00" font-size="36">33</text>
    <text class="key-index" x="160.00" y="230.00" font-size="36">34</text>
    <text class="key-index" x="230.00" y="230.00" font-size="36">35</text>
    <text class="key-index" x="300.00" y="230.00" font-size="36">36</text>
    <text class="key-index" x="370.00" y="230.00" font-size="36">37</text>
    <text class="key-index" x="440.00" y="230.00" font-size="36">38</text>
    <text class="key-index" x="510.00" y="230.00" font-size="36">39</text>
    <text class="key-index" x="580.00" y="230.00" font-size="36">40</text>
    <text class="key-index" x="650.00" y="230.00" font-size="36">41</text>
    <text class="key-index" x="720.00" y="230.00" font-size="36">42</text>
    <text class="key-index" x="790.00" y="230.00" font-size="36">43</text>
    <text class="key-index" x="860.00" y="230.00" font-size="36">44</text>
    <text class="key-index" x="930.00" y="230.00" font-size="36">45</text>
    <text class="key-index" x="1017.50" y="230.00" font-size="36">46</text>
    <text class="key-index" x="1122.50" y="230.00" font-size="36">47</text>
    <text class="key-index" x="1192.50" y="230.00" font-size="36">48</text>
    <text class="key-index" x="1262.50" y="230.00" font-size="36">49</text>
    <text class="key-index" x="81.25" y="300.00" font-size="36">50</text>
    <text class="key-index" x="177.50" y="300.00" font-size="36">51</text>
    <text class="key-index" x="247.50" y="300.00" font-size="36">52</text>
    <text class="key-index" x="317.50" y="300.00" font-size="36">53</text>
    <text class="key-index" x="387.50" y="300.00" font-size="36">54</text>
    <text class="key-index" x="457.50" y="300.00" font-size="36">55</text>
    <text class="key-index" x="527.50" y="300.00" font-size="36">56</text>
    <text class="key-index" x="597.50" y="300.00" font-size="36">57</text>
    <text class="key-index" x="667.50" y="300.00" font-size="36">58</text>
    <text class="key-index" x="737.50" y="300.00" font-size="36">59</text>
    <text class="key-index" x="807.50" y="300.00" font-size="36">60</text>
    <text class="key-index" x="877.50" y="300.00" font-size="36">61</text>
    <text class="key-index" x="991.25" y="300.00" font-size="36">62</text>
    <text class="key-index" x="98.75" y="370.00" font-size="36">63</text>
    <text class="key-index" x="212.50" y="370.00" font-size="36">64</text>
    <text class="key-index" x="282.50" y="370.00" font-size="36">65</text>
    <text class="key-index" x="352.50" y="370.00" font-size="36">66</text>
    <text class="key-index" x="422.50" y="370.00" font-size="36">67</text>
    <text class="key-index" x="492.50" y="370.00" font-size="36">68</text>
    <text class="key-index" x="562.50" y="370.00" font-size="36">69</text>
    <text class="key-index" x="632.50" y="370.00" font-size="36">70</text>
    <text class="key-index" x="702.50" y="370.00" font-size="36">71</text>
    <text class="key-index" x="772.50" y="370.00" font-size="36">72</text>
    <text class="key-index" x="842.50" y="370.00" font-size="36">73</text>
    <text class="key-index" x="973.75" y="370.00" font-size="36">74</text>
    <text class="key-index" x="1192.50" y="370.00" font-size="36">75</text>
    <text class="key-index" x="63.75" y="440.00" font-size="36">76</text>
    <text class="key-index" x="151.25" y="440.00" font-size="36">77</text>
    <text class="key-index" x="238.75" y="440.00" font-size="36">78</text>
    <text class="key-index" x="501.25" y="440.00" font-size="36">79</text>
    <text class="key-index" x="763.75" y="440.00" font-size="36">80</text>
    <text class="key-index" x="851.25" y="440.00" font-size="36">81</text>
    <text class="key-index" x="938.75" y="440.00" font-size="36">82</text>
    <text class="key-index" x="1026.25" y="440.00" font-size="36">83</text>
    <text class="key-index" x="1122.50" y="440.00" font-size="36">84</text>
    <text class="key-index" x="1192.50" y="440.00" font-size="36">85</text>
    <text class="key-index" x="1262.50" y="440.00" font-size="36">86</text>
  </g>
</svg>
